<svg width="24" height="24" viewBox="0 0 24 24" fill="none" xmlns="http://www.w3.org/2000/svg">
<path fill-rule="evenodd" clip-rule="evenodd" d="M5.09992 10.8547C9.39488 8.93544 12.2589 7.67014 13.6919 7.0588C17.7834 5.31333 18.6335 5.01012 19.1877 5.00011C19.3095 4.9979 19.5821 5.02888 19.7586 5.17579C19.9076 5.29984 19.9486 5.46741 19.9683 5.58502C19.9879 5.70263 20.0123 5.97055 19.9929 6.1799C19.7712 8.56932 18.8118 14.3678 18.3237 17.044C18.1172 18.1764 17.7105 18.5561 17.3169 18.5933C16.4613 18.674 15.8116 18.0133 14.9829 17.4562C13.6862 16.5844 12.9537 16.0417 11.695 15.1909C10.2404 14.2078 11.1834 13.6674 12.0124 12.7843C12.2293 12.5532 15.999 9.03637 16.0719 8.71734C16.0811 8.67744 16.0895 8.52872 16.0034 8.45018C15.9172 8.37165 15.7901 8.3985 15.6983 8.41986C15.5683 8.45014 13.4968 9.85445 9.48389 12.6328C8.89591 13.0469 8.36333 13.2487 7.88616 13.2381C7.36012 13.2265 6.34822 12.9331 5.59598 12.6823C4.67333 12.3746 3.94002 12.212 4.00388 11.6896C4.03714 11.4175 4.40248 11.1392 5.09992 10.8547Z" fill="black"/>
</svg>
