<svg width="24" height="24" viewBox="0 0 24 24" fill="none" xmlns="http://www.w3.org/2000/svg">
<path fill-rule="evenodd" clip-rule="evenodd" d="M18.2602 6.34259C18.9456 6.52706 19.4859 7.06729 19.6704 7.75247C20.0131 9.00424 19.9999 11.6132 19.9999 11.6132C19.9999 11.6132 19.9999 14.2089 19.6704 15.4607C19.4859 16.1459 18.9456 16.6861 18.2602 16.8706C17.0082 17.2 12 17.2 12 17.2C12 17.2 7.00493 17.2 5.7397 16.8574C5.05436 16.6729 4.514 16.1327 4.32949 15.4475C4 14.2089 4 11.6 4 11.6C4 11.6 4 9.00424 4.32949 7.75247C4.514 7.06729 5.06754 6.51388 5.7397 6.32941C6.99175 6 12 6 12 6C12 6 17.0082 6 18.2602 6.34259ZM14.57 11.6003L10.4053 13.9984V9.20215L14.57 11.6003Z" fill="black"/>
</svg>
