<svg width="24" height="24" viewBox="0 0 24 24" fill="none" xmlns="http://www.w3.org/2000/svg">
<g clip-path="url(#clip0_57_311)">
<path fill-rule="evenodd" clip-rule="evenodd" d="M4.2653 4.2653C3 5.5306 3 7.56707 3 11.64V12.36C3 16.4329 3 18.4694 4.2653 19.7347C5.5306 21 7.56707 21 11.64 21H12.36C16.4329 21 18.4694 21 19.7347 19.7347C21 18.4694 21 16.4329 21 12.36V11.64C21 7.56707 21 5.5306 19.7347 4.2653C18.4694 3 16.4329 3 12.36 3H11.64C7.56707 3 5.5306 3 4.2653 4.2653ZM6.03754 8.47504C6.13502 13.155 8.47501 15.9675 12.5775 15.9675H12.8101V13.29C14.3176 13.44 15.4575 14.5425 15.915 15.9675H18.045C17.46 13.8375 15.9225 12.66 14.9625 12.21C15.9225 11.655 17.2725 10.305 17.595 8.47504H15.6599C15.2399 9.96004 13.995 11.31 12.8101 11.4375V8.47504H10.875V13.665C9.67499 13.365 8.16002 11.91 8.09252 8.47504H6.03754Z" fill="black"/>
</g>
<defs>
<clipPath id="clip0_57_311">
<rect width="18" height="18" fill="white" transform="translate(3 3)"/>
</clipPath>
</defs>
</svg>
